<svg width="322" height="66" viewBox="0 0 322 66" fill="none" xmlns="http://www.w3.org/2000/svg">
<g clip-path="url(#clip0_5_3923)">
<path d="M37.4044 57.0876C23.5969 57.0876 12.2497 46.3391 11.2882 32.769H1.87116C0.838959 32.769 0 31.9322 0 30.8974C0 29.8626 0.836602 29.0259 1.87116 29.0259H13.0911C14.1233 29.0259 14.9622 29.8626 14.9622 30.8974C14.9622 43.2748 25.0297 53.3445 37.4044 53.3445C49.779 53.3445 59.8465 43.2748 59.8465 30.8974C59.8465 29.865 60.6831 29.0259 61.7177 29.0259C62.7523 29.0259 63.5888 29.8626 63.5888 30.8974C63.5888 45.3373 51.8434 57.0853 37.4067 57.0853L37.4044 57.0876Z" fill="#FF5722"/>
<path d="M37.4044 50.5419C26.5757 50.5419 17.7666 41.7309 17.7666 30.8998C17.7666 20.0687 26.5757 11.2577 37.4044 11.2577C48.2331 11.2577 57.0421 20.0687 57.0421 30.8998C57.0421 41.7309 48.2331 50.5419 37.4044 50.5419ZM37.4044 16.8701C29.6699 16.8701 23.3777 23.1636 23.3777 30.8998C23.3777 38.6359 29.6699 44.9295 37.4044 44.9295C45.1388 44.9295 51.431 38.6359 51.431 30.8998C51.431 23.1636 45.1388 16.8701 37.4044 16.8701Z" fill="#4CAF50"/>
<path d="M46.878 0.110786C46.442 0.0400714 45.9966 0 45.5418 0C41.043 0 37.395 3.64886 37.395 8.14864C37.395 8.60357 37.435 9.04907 37.5057 9.48514C37.9417 9.55586 38.3871 9.59593 38.8419 9.59593C43.3407 9.59593 46.9888 5.94707 46.9888 1.44729C46.9888 0.992357 46.9487 0.546857 46.878 0.110786ZM32.0148 3.25521C31.7131 3.25521 31.4186 3.28114 31.131 3.32829C31.0839 3.61586 31.058 3.9105 31.058 4.21221C31.058 7.18457 33.4665 9.59593 36.4405 9.59593C36.7422 9.59593 37.0367 9.57 37.3243 9.52286C37.3714 9.23529 37.3973 8.94064 37.3973 8.63893C37.3973 5.66657 34.9888 3.25521 32.0148 3.25521Z" fill="#4CAF50"/>
<path d="M29.9244 66C31.4733 66 32.7288 64.7442 32.7288 63.195C32.7288 61.6458 31.4733 60.39 29.9244 60.39C28.3756 60.39 27.1201 61.6458 27.1201 63.195C27.1201 64.7442 28.3756 66 29.9244 66Z" fill="#FF5722"/>
<path d="M44.8843 66C46.4331 66 47.6887 64.7442 47.6887 63.195C47.6887 61.6458 46.4331 60.39 44.8843 60.39C43.3355 60.39 42.0799 61.6458 42.0799 63.195C42.0799 64.7442 43.3355 66 44.8843 66Z" fill="#FF5722"/>
<path d="M101.184 19.6232L97.2839 23.4819C94.8165 20.8701 91.9391 19.5643 88.6516 19.5643C85.7859 19.5643 83.3869 20.5142 81.4544 22.4141C79.5196 24.3139 78.5534 26.6216 78.5534 29.3394C78.5534 32.0571 79.5573 34.5298 81.5628 36.4815C83.5707 38.4332 86.0451 39.4091 88.9886 39.4091C90.9021 39.4091 92.5164 39.006 93.8314 38.2022C95.1441 37.3984 96.2045 36.1374 97.0105 34.4237H88.5832V29.2191H103.223L103.263 30.4449C103.263 32.9906 102.603 35.4043 101.285 37.686C99.9657 39.9677 98.2595 41.7096 96.1621 42.9094C94.0647 44.1092 91.6044 44.7103 88.7835 44.7103C85.7623 44.7103 83.0687 44.055 80.7027 42.7421C78.3343 41.4291 76.4631 39.5599 75.0845 37.1321C73.7058 34.7042 73.0177 32.0854 73.0177 29.2757C73.0177 25.4241 74.2903 22.0723 76.8354 19.2249C79.8543 15.8353 83.7851 14.1405 88.6256 14.1405C91.159 14.1405 93.5251 14.6096 95.7285 15.5454C97.5879 16.3374 99.4072 17.6951 101.189 19.6209L101.184 19.6232Z" fill="#FF5722"/>
<path d="M106.487 22.4541H111.115V25.1649C111.617 24.0971 112.281 23.2862 113.113 22.7299C113.945 22.1736 114.855 21.8979 115.842 21.8979C116.542 21.8979 117.273 22.0817 118.039 22.4518L116.356 27.1024C115.722 26.7866 115.201 26.6286 114.794 26.6286C113.962 26.6286 113.259 27.1425 112.687 28.1726C112.114 29.2026 111.827 31.2204 111.827 34.2281L111.845 35.277V43.9843H106.484V22.4541H106.487Z" fill="#FF5722"/>
<path d="M167.714 26.8078L163.218 29.2804C162.372 28.3965 161.537 27.7836 160.712 27.4395C159.888 27.0954 158.919 26.9256 157.811 26.9256C155.792 26.9256 154.156 27.5291 152.91 28.7336C151.661 29.9381 151.039 31.482 151.039 33.3654C151.039 35.2487 151.639 36.6913 152.841 37.851C154.043 39.0107 155.62 39.5906 157.576 39.5906C159.991 39.5906 161.874 38.7656 163.22 37.1179L167.478 40.0337C165.171 43.0367 161.912 44.5382 157.705 44.5382C153.921 44.5382 150.956 43.4162 148.814 41.1746C146.669 38.9329 145.599 36.3071 145.599 33.2994C145.599 31.2156 146.12 29.2969 147.162 27.5409C148.203 25.7871 149.658 24.4082 151.524 23.4064C153.39 22.4046 155.476 21.9026 157.786 21.9026C159.923 21.9026 161.841 22.3269 163.543 23.1778C165.244 24.0287 166.635 25.2379 167.716 26.8078H167.714Z" fill="#FF5722"/>
<path d="M194.144 34.782H176.794C177.044 36.3118 177.713 37.5304 178.802 38.4332C179.891 39.336 181.279 39.7886 182.966 39.7886C184.983 39.7886 186.718 39.0838 188.17 37.6719L192.72 39.8098C191.587 41.4197 190.227 42.6101 188.646 43.3809C187.064 44.1516 185.184 44.5382 183.009 44.5382C179.631 44.5382 176.881 43.4728 174.758 41.3419C172.635 39.2111 171.572 36.5428 171.572 33.3371C171.572 30.1314 172.63 27.324 174.746 25.1554C176.862 22.9845 179.516 21.9002 182.709 21.9002C186.098 21.9002 188.855 22.9845 190.979 25.1554C193.102 27.3264 194.165 30.1903 194.165 33.7519L194.146 34.782H194.144ZM188.742 30.5274C188.386 29.3276 187.682 28.3517 186.631 27.5998C185.58 26.8479 184.361 26.4731 182.976 26.4731C181.47 26.4731 180.148 26.895 179.012 27.7389C178.298 28.2669 177.638 29.1956 177.03 30.5297H188.742V30.5274Z" fill="#FF5722"/>
<path d="M197.25 22.4541H201.878V25.1649C202.38 24.0971 203.045 23.2862 203.876 22.7299C204.708 22.1736 205.618 21.8979 206.605 21.8979C207.305 21.8979 208.036 22.0817 208.802 22.4518L207.119 27.1024C206.485 26.7866 205.964 26.6286 205.557 26.6286C204.725 26.6286 204.023 27.1425 203.45 28.1726C202.877 29.2026 202.59 31.2204 202.59 34.2281L202.609 35.277V43.9843H197.247V22.4541H197.25Z" fill="#FF5722"/>
<path d="M209.085 22.4541H214.604L220.194 35.9629L226.363 22.4541H231.899L218.419 51.8571H212.841L217.267 42.3744L209.085 22.4518V22.4541Z" fill="#FF5722"/>
<path d="M234.461 43.9819L238.627 14.8759H239.101L250.931 38.7585L262.648 14.8759H263.115L267.303 43.9819H264.451L261.576 23.166L251.287 43.9819H250.545L240.133 23.0081L237.275 43.9819H234.465H234.461Z" fill="#4CAF50"/>
<path d="M294.008 22.4541V43.9819H291.279V40.2812C290.12 41.6931 288.816 42.7539 287.372 43.4681C285.927 44.1823 284.348 44.5359 282.635 44.5359C279.588 44.5359 276.986 43.4304 274.83 41.2217C272.673 39.0131 271.594 36.3236 271.594 33.1579C271.594 29.9923 272.683 27.4065 274.858 25.2026C277.033 22.9986 279.651 21.8979 282.713 21.8979C284.48 21.8979 286.078 22.2726 287.511 23.0246C288.941 23.7765 290.197 24.9032 291.279 26.4071V22.4494H294.008V22.4541ZM282.939 24.5709C281.398 24.5709 279.974 24.9504 278.671 25.707C277.366 26.466 276.329 27.5291 275.558 28.8986C274.787 30.2681 274.403 31.7177 274.403 33.2475C274.403 34.7773 274.792 36.2128 275.57 37.5964C276.347 38.9801 277.391 40.0573 278.702 40.8281C280.012 41.5989 281.419 41.9854 282.92 41.9854C284.421 41.9854 285.871 41.6036 287.228 40.8399C288.585 40.0761 289.629 39.0414 290.36 37.7379C291.09 36.4344 291.456 34.9635 291.456 33.33C291.456 30.8409 290.636 28.7571 288.995 27.0836C287.355 25.41 285.336 24.5732 282.939 24.5732V24.5709Z" fill="#4CAF50"/>
<path d="M299.19 22.4541H302.018V25.6009C302.862 24.3611 303.753 23.4347 304.688 22.8219C305.624 22.209 306.599 21.9026 307.615 21.9026C308.379 21.9026 309.199 22.1477 310.068 22.6356L308.624 24.9716C308.044 24.7217 307.556 24.5968 307.16 24.5968C306.237 24.5968 305.348 24.9763 304.49 25.7353C303.632 26.4943 302.98 27.6705 302.532 29.2663C302.188 30.492 302.018 32.9741 302.018 36.7054V43.9866H299.19V22.4541Z" fill="#4CAF50"/>
<path d="M314.838 14.4587H317.607V22.4518H322V24.8466H317.607V43.9819H314.838V24.8466H311.061V22.4518H314.838V14.4587Z" fill="#4CAF50"/>
<path d="M130.948 44.5359C124.724 44.5359 119.662 39.4727 119.662 33.2475C119.662 27.0223 124.724 21.9591 130.948 21.9591C137.172 21.9591 142.234 27.0223 142.234 33.2475C142.234 39.4727 137.172 44.5359 130.948 44.5359ZM130.948 26.8031C127.397 26.8031 124.505 29.6929 124.505 33.2475C124.505 36.8021 127.395 39.6919 130.948 39.6919C134.502 39.6919 137.391 36.8021 137.391 33.2475C137.391 29.6929 134.502 26.8031 130.948 26.8031Z" fill="#4CAF50"/>
<path d="M137.493 14.223C137.182 14.1711 136.863 14.1429 136.538 14.1429C133.321 14.1429 130.715 16.7499 130.715 19.9674C130.715 20.2926 130.743 20.6109 130.795 20.922C131.106 20.9739 131.424 21.0021 131.75 21.0021C134.966 21.0021 137.573 18.3951 137.573 15.1776C137.573 14.8524 137.544 14.5341 137.493 14.223ZM126.867 16.4717C126.652 16.4717 126.44 16.4906 126.235 16.5236C126.202 16.7286 126.183 16.9408 126.183 17.1553C126.183 19.2814 127.906 21.0045 130.032 21.0045C130.246 21.0045 130.458 20.9856 130.663 20.9526C130.696 20.7476 130.715 20.5354 130.715 20.3209C130.715 18.1948 128.992 16.4717 126.867 16.4717Z" fill="#4CAF50"/>
</g>
<defs>
<clipPath id="clip0_5_3923">
<rect width="322" height="66" fill="white"/>
</clipPath>
</defs>
</svg>
