<svg width="166" height="138" viewBox="0 0 166 138" fill="none" xmlns="http://www.w3.org/2000/svg">
<defs>
<linearGradient id="paint0_linear_157_1930" x1="56.8634" y1="-2.92319" x2="102.857" y2="76.9324" gradientUnits="userSpaceOnUse">
<stop offset="0.0225" stop-color="#FFD95F"/>
<stop offset="0.5625" stop-color="#FF9E65"/>
<stop offset="1" stop-color="#FF6842"/>
</linearGradient>
<linearGradient id="paint1_linear_157_1930" x1="58.9022" y1="0.5974" x2="100.836" y2="73.404" gradientUnits="userSpaceOnUse">
<stop stop-color="#EA1C24"/>
<stop offset="0.2275" stop-color="#E01A21"/>
<stop offset="0.6138" stop-color="#C5141B"/>
<stop offset="1" stop-color="#A40D12"/>
</linearGradient>
<clipPath id="clip0_157_1930">
<rect width="166" height="138" fill="white"/>
</clipPath>
</defs>
<g clip-path="url(#clip0_157_1930)">
<path d="M160.474 138H5.52642C2.47409 138 0 135.532 0 132.487V90.6315C0 87.5865 2.47478 85.1177 5.52711 85.1177H160.474C163.526 85.1177 166 87.5858 166 90.6308V132.487C166 135.532 163.526 138 160.474 138Z" fill="#EA1C24"/>
<path d="M156.6 36.1174C156.861 38.1625 156.624 40.2498 155.724 42.3605C155.622 42.6089 155.007 43.9771 153.641 45.7373C151.905 47.9743 148.966 50.8454 144.328 52.8574C134.149 57.2928 125.415 53.4163 113.343 53.3825C86.8761 53.2928 79.8626 71.7503 55.3645 73.1717C38.9533 74.1191 20.5715 67.0963 12.5171 55.8451C11.1075 53.8849 10.0195 51.7914 9.30706 49.5882C8.91904 48.3987 8.6652 47.2126 8.5151 46.034C6.34604 29.029 27.3623 14.3934 28.913 13.3577C58.9044 -6.94278 111.553 -2.07 137.583 14.3824C140.707 16.3509 155.262 25.5486 156.6 36.1174Z" fill="url(#paint0_linear_157_1930)"/>
<path d="M58.1297 68.8406C57.1503 68.9648 56.1412 69.058 55.1286 69.1159C39.7418 70.0046 22.8464 63.284 15.8309 53.4833C14.6419 51.8287 13.7517 50.1009 13.1839 48.3407C12.8857 47.4285 12.6817 46.5094 12.5551 45.52C10.6558 30.6332 30.9735 16.8684 31.1796 16.7311C40.0433 10.7323 51.7802 6.67161 65.1398 4.97559C90.0197 1.81677 118.257 6.9759 135.403 17.8144C145.61 24.2431 151.861 31.099 152.561 36.6266C152.745 38.0666 152.553 39.4204 151.979 40.7707C151.958 40.8197 151.512 41.8464 150.421 43.2513C149.069 44.9935 146.631 47.4292 142.705 49.1321C140.839 49.9457 138.95 50.4645 136.924 50.7219C133.172 51.198 129.37 50.7426 124.968 50.2141C121.522 49.8008 117.618 49.3322 113.354 49.3205C110.889 49.3122 108.463 49.4578 106.144 49.7525C95.221 51.1394 87.6909 55.585 80.409 59.8837C73.6072 63.8981 67.1843 67.6911 58.1297 68.8406Z" fill="url(#paint1_linear_157_1930)"/>
<path d="M156.6 36.1174L159.197 56.4765C159.458 58.5217 159.223 60.6193 158.322 62.73C158.085 63.282 155.229 69.6127 146.927 73.2262C136.747 77.6512 128.012 73.7748 115.94 73.7417C89.4733 73.652 82.4605 92.1198 57.9617 93.5309C38.6891 94.6473 16.6878 84.7568 11.9043 69.9474C11.5162 68.7578 11.2624 67.5717 11.1123 66.3932L8.51441 46.034C8.6652 47.2126 8.91904 48.3987 9.30637 49.5882C10.0181 51.7907 11.1061 53.8842 12.5164 55.8451C20.5709 67.097 38.9526 74.1191 55.3638 73.1717C79.8619 71.7503 86.8761 53.2928 113.342 53.3825C125.414 53.4157 134.149 57.2921 144.327 52.8575C148.966 50.8454 151.904 47.9743 153.64 45.7373C155.006 43.9771 155.622 42.6089 155.723 42.3605C156.625 40.2498 156.861 38.1625 156.6 36.1174Z" fill="#FF6842"/>
<path d="M57.8219 76.7935C61.5362 76.3209 65.1827 75.3942 68.6479 74.0487C72.1194 72.7087 75.3917 70.952 78.5512 69.0476C75.2872 70.7692 71.9299 72.3279 68.4342 73.4512C64.9434 74.5807 61.3322 75.2783 57.6961 75.5308C50.4163 76.0152 43.0867 74.9085 36.2364 72.6232C29.409 70.3372 22.9011 66.8203 17.9695 61.8578C17.5787 61.4618 17.2031 61.054 16.8352 60.64C15.1897 59.1461 13.7337 57.5453 12.5171 55.8458C11.1075 53.8855 10.0195 51.7921 9.30706 49.5889C8.91904 48.3994 8.6652 47.2132 8.51511 46.0347L11.113 66.3939C11.2631 67.5724 11.5169 68.7585 11.905 69.9481C12.8726 72.9447 14.5554 75.7351 16.7674 78.2784C21.5108 82.6931 27.2434 85.6663 33.1288 87.7701C36.3353 88.9286 39.6546 89.7124 42.9871 90.2982C46.3216 90.8854 49.7045 91.1683 53.0778 91.1414C59.8229 91.1863 66.5605 89.7883 72.6257 87.0187C66.3882 89.3978 59.6888 90.3334 53.1124 89.8725C49.8228 89.6903 46.5547 89.206 43.3661 88.4325C40.1803 87.6604 37.0367 86.7047 34.0459 85.402C32.0304 84.5374 30.0591 83.5521 28.1647 82.4557C29.9803 83.272 31.8312 83.9944 33.7049 84.6113C40.3421 86.822 47.3259 87.8211 54.2509 87.6424C57.712 87.5251 61.1689 87.0925 64.5041 86.2065C67.8449 85.342 71.0494 84.0579 74.1072 82.5261C70.9588 83.8667 67.7003 84.9411 64.3624 85.5876C61.0271 86.2555 57.629 86.4667 54.2474 86.3728C47.4884 86.1292 40.7876 84.7327 34.5778 82.2259C32.3043 81.3234 30.0847 80.2656 27.9703 79.0554C30.0322 79.9834 32.1383 80.7962 34.288 81.4545C41.15 83.5314 48.3281 84.5354 55.4357 84.062C58.9874 83.8895 62.5135 83.2388 65.8958 82.2073C69.2815 81.1668 72.5019 79.7019 75.5888 78.0335C72.4057 79.5142 69.1176 80.7735 65.7263 81.5959C62.3358 82.4095 58.8636 82.8352 55.3928 82.7938C48.4485 82.8393 41.5526 81.4338 35.1159 79.054C32.6799 78.1259 30.2971 77.0316 28.0277 75.7689C30.2722 76.739 32.5678 77.5712 34.8877 78.2619C41.9482 80.3388 49.3566 81.0833 56.6274 80.4637C60.2642 80.1318 63.8526 79.3459 67.2757 78.1466C70.7042 76.9516 73.9495 75.3335 77.0696 73.5409C73.8479 75.1479 70.5265 76.5645 67.0827 77.5422C63.6423 78.5241 60.0982 79.0823 56.5438 79.1975C49.4327 79.3831 42.3079 78.2329 35.6713 75.8469C33.1246 74.9271 30.6284 73.8341 28.247 72.5639C30.618 73.5506 33.0451 74.3806 35.497 75.0534C42.7713 77.0226 50.3838 77.7181 57.8219 76.7935Z" fill="#8E0100"/>
<path d="M158.432 62.4491C159.236 60.4336 159.447 58.4306 159.197 56.4765L156.6 36.1174C156.861 38.1625 156.624 40.2498 155.724 42.3605C155.636 42.5751 155.162 43.6259 154.156 45.0411C153.988 45.4406 153.775 45.8643 153.547 46.2755C151.59 49.7552 148.439 52.6849 144.725 54.6135C142.856 55.5726 140.876 56.3261 138.8 56.7842C136.726 57.2514 134.571 57.4432 132.395 57.4632C128.036 57.4915 123.617 56.9333 119.206 56.7849C123.587 57.3542 127.882 58.3285 132.344 58.7314C134.573 58.9246 136.85 58.9474 139.123 58.6603C141.398 58.3837 143.645 57.7737 145.793 56.9174C147.35 56.2867 148.855 55.4974 150.278 54.5631C148.992 55.7803 147.553 56.8629 145.996 57.7523C142.492 59.8113 138.443 60.8483 134.258 60.996C130.07 61.1754 125.804 60.6883 121.556 60.5289C125.771 61.1078 129.925 62.0158 134.25 62.2649C136.408 62.3863 138.609 62.3208 140.79 61.9551C142.973 61.5949 145.117 60.9291 147.148 60.0155C148.518 59.4 149.837 58.6534 151.092 57.7999C149.934 58.9488 148.643 59.9872 147.248 60.8628C143.946 62.939 140.128 64.1983 136.117 64.5067C132.105 64.8379 127.993 64.4515 123.905 64.2749C127.955 64.8703 131.976 65.6832 136.159 65.7756C140.333 65.8922 144.637 64.9849 148.487 63.0805C149.669 62.4933 150.807 61.8061 151.895 61.0402C150.862 62.1138 149.714 63.0971 148.481 63.9451C145.397 66.0585 141.788 67.4813 137.967 67.965C134.143 68.4956 130.181 68.2093 126.255 68.0195C130.138 68.626 134.035 69.3471 138.07 69.2305C142.1 69.1566 146.169 68.0706 149.806 66.113C150.802 65.5679 151.764 64.9545 152.688 64.2832C151.783 65.2699 150.779 66.1807 149.695 66.999C146.827 69.1428 143.422 70.6753 139.807 71.3784C136.179 72.0933 132.372 71.9898 128.606 71.7648C132.321 72.4052 136.108 72.9502 139.98 72.6356C143.847 72.323 147.673 71.1218 151.103 69.1132C152.814 68.1009 154.422 66.8817 155.865 65.4658C156.799 64.5309 157.654 63.5504 158.432 62.4491Z" fill="#8E0100"/>
<path d="M22.8672 53.0976C26.2121 49.9636 29.4768 46.7889 32.6757 43.5562C35.8567 40.3084 38.9706 37.0068 41.9468 33.5899L44.1622 31.0134C44.9037 30.1571 45.5753 29.2463 46.2995 28.3756L47.3764 27.0618L48.3952 25.7053C49.0613 24.7917 49.7737 23.9078 50.4363 22.9901C53.0868 19.3124 55.4834 15.476 57.7569 11.4892C56.2602 15.8176 54.1997 19.9714 51.7546 23.8747C49.2778 27.7566 46.5007 31.4481 43.4823 34.9223C40.4293 38.3654 37.2068 41.6539 33.7672 44.6996C30.3317 47.7452 26.7357 50.6218 22.8672 53.0976Z" fill="#8E0100"/>
<path d="M46.5595 57.4108C50.3983 53.8924 54.1326 50.3038 57.7846 46.6419C61.4186 42.9628 64.9662 39.2113 68.3553 35.3245L70.8737 32.3907C71.7168 31.415 72.4811 30.3786 73.3028 29.3857L74.5243 27.8877L75.6801 26.3407C76.4361 25.2995 77.2426 24.2908 77.9916 23.2433C80.9907 19.0468 83.6924 14.6639 86.2239 10.1078C84.4691 15.0054 82.1036 19.7064 79.3093 24.1279C76.4783 28.5246 73.3201 32.7122 69.8901 36.6569C66.4249 40.5692 62.7681 44.309 58.8754 47.7853C54.9868 51.2608 50.9219 54.5514 46.5595 57.4108Z" fill="#8E0100"/>
<path d="M78.8687 55.6899C82.2136 52.5559 85.4782 49.3812 88.6772 46.1486C91.8582 42.9007 94.9721 39.5991 97.9483 36.1822L100.164 33.6058C100.905 32.7495 101.577 31.8387 102.301 30.9679L103.378 29.6541L104.397 28.2976C105.063 27.384 105.775 26.5001 106.438 25.5824C109.088 21.9047 111.485 18.0683 113.758 14.0815C112.262 18.4099 110.201 22.5637 107.756 26.467C105.279 30.349 102.502 34.0405 99.4838 37.5146C96.4308 40.9577 93.2083 44.2462 89.7686 47.2919C86.3324 50.3383 82.7365 53.2149 78.8687 55.6899Z" fill="#8E0100"/>
<path d="M119.202 44.536C120.41 42.6813 121.718 40.9446 123.035 39.2244C124.342 37.4967 125.695 35.8172 127.017 34.115L131.056 29.0614C132.411 27.3757 133.768 25.688 135.239 24.032C134.497 26.1186 133.49 28.0823 132.361 29.9646C131.242 31.8559 129.961 33.643 128.614 35.3728C127.236 37.0799 125.793 38.7325 124.224 40.267C122.665 41.8092 121.017 43.2644 119.202 44.536Z" fill="#8E0100"/>
<path d="M20.8233 37.0771C25.5633 37.4698 30.239 38.4703 34.8247 39.7302C39.4167 40.9853 43.9215 42.5647 48.3081 44.4222C49.4113 44.8721 50.493 45.3689 51.57 45.8774C52.6448 46.3908 53.7418 46.8558 54.7966 47.4085C56.8979 48.5305 59.0358 49.5799 61.0555 50.8454C65.1792 53.2204 69.0546 56.0094 72.7211 59.0109C68.5677 56.7021 64.509 54.323 60.2891 52.2337C56.108 50.0836 51.8418 48.1109 47.514 46.2914C43.205 44.4229 38.7977 42.7869 34.3558 41.2385C29.9049 39.7074 25.4098 38.2964 20.8233 37.0771Z" fill="#8E0100"/>
<path d="M34.6172 22.5471C39.3572 22.9397 44.0329 23.9402 48.6186 25.2002C53.2113 26.4553 57.7154 28.0347 62.102 29.8922C63.2052 30.3414 64.2876 30.8389 65.3646 31.3474C66.4387 31.8607 67.5364 32.3258 68.5912 32.8785C70.6925 34.0004 72.8304 35.0499 74.8501 36.3154C78.9738 38.6904 82.8492 41.4793 86.5157 44.4808C82.3623 42.1721 78.3036 39.793 74.0837 37.7037C69.9019 35.5536 65.6364 33.5809 61.3086 31.7614C56.9996 29.8929 52.5923 28.2569 48.1504 26.7085C43.6988 25.1774 39.2037 23.7664 34.6172 22.5471Z" fill="#8E0100"/>
<path d="M59.484 10.3272C64.8458 11.4995 70.0548 13.3032 75.1413 15.3608C80.2313 17.4211 85.1995 19.7906 90.008 22.4464C91.2205 23.0922 92.3991 23.7974 93.5804 24.4978C94.7549 25.2098 95.9632 25.8646 97.1086 26.6236C99.4049 28.1306 101.736 29.5831 103.933 31.2322C108.424 34.3882 112.629 37.9369 116.61 41.6877C112.088 38.5882 107.659 35.4267 103.041 32.5438C98.4684 29.5996 93.7831 26.8424 89.0244 24.2238C84.2879 21.5618 79.4172 19.1434 74.505 16.807C69.5796 14.4941 64.5927 12.302 59.484 10.3272Z" fill="#8E0100"/>
<path d="M93.3162 9.20805C97.895 10.4942 102.293 12.3648 106.555 14.4727C110.823 16.5779 114.944 18.984 118.895 21.6405C119.893 22.2911 120.86 22.9846 121.82 23.6891C122.777 24.397 123.765 25.0622 124.696 25.8053C126.545 27.3061 128.442 28.7419 130.184 30.3683C133.779 33.4829 137.051 36.9578 140.078 40.6003C136.441 37.5443 132.911 34.4379 129.167 31.5854C125.472 28.6805 121.661 25.9336 117.76 23.3248C113.886 20.6717 109.872 18.2284 105.807 15.8645C101.73 13.5157 97.5859 11.2767 93.3162 9.20805Z" fill="#8E0100"/>
<path d="M7.53847 127.587V126.635C8.34011 126.581 8.92042 126.374 9.28009 126.015C9.63906 125.657 9.8189 124.802 9.8189 123.451V104.217C9.8189 102.867 9.61901 102.004 9.21853 101.632C8.81736 101.26 8.05031 101.059 6.91666 101.032V100.081H18.7338V101.032C17.9321 101.059 17.3518 101.26 16.9922 101.632C16.6332 102.004 16.4534 102.867 16.4534 104.217V111.538C16.674 111.372 16.9438 111.263 17.2619 111.208C17.5801 111.153 17.9598 111.125 18.4018 111.125H26.2384C26.9847 111.125 27.509 111 27.814 110.753C28.1169 110.504 28.2698 110.007 28.2698 109.263V104.216C28.2698 102.867 28.0685 102.003 27.668 101.631C27.2669 101.259 26.4998 101.059 25.3676 101.031V100.08H37.184V101.031C36.3824 101.059 35.802 101.259 35.4431 101.631C35.0834 102.003 34.9036 102.866 34.9036 104.216V123.45C34.9036 124.801 35.1111 125.657 35.5254 126.014C35.9397 126.373 36.6998 126.58 37.8058 126.634V127.586H25.9901V126.634C26.791 126.58 27.3713 126.373 27.731 126.014C28.09 125.656 28.2705 124.801 28.2705 123.45V112.449C28.0492 112.641 27.7725 112.765 27.4405 112.821C27.1085 112.876 26.7364 112.904 26.3207 112.904H18.4855C17.7392 112.904 17.2135 113.028 16.9099 113.276C16.6055 113.524 16.4541 114.007 16.4541 114.724V123.451C16.4541 124.802 16.6616 125.657 17.0759 126.015C17.4902 126.374 18.2503 126.581 19.3563 126.635V127.587H7.53847Z" fill="white"/>
<path d="M45.6417 128.208C44.1214 128.208 42.9954 127.753 42.2629 126.843C41.5304 125.933 41.1645 124.885 41.1645 123.7C41.1645 121.88 41.9994 120.404 43.6732 119.274C45.3457 118.143 47.936 117.11 51.4469 116.172V113.979C51.4469 112.683 51.1778 111.753 50.6383 111.187C50.0995 110.622 49.3463 110.339 48.3786 110.339C47.052 110.339 45.9536 110.836 45.0835 111.828C44.212 112.821 43.6117 114.158 43.2797 115.841H42.3258V109.885C43.2658 109.417 44.4887 108.974 45.9958 108.561C47.5023 108.148 49.1388 107.941 50.9087 107.941C55.6902 107.941 58.0813 109.789 58.0813 113.484V122.5C58.0813 123.134 58.1636 123.623 58.3296 123.968C58.4956 124.313 58.8276 124.486 59.3249 124.486C59.6009 124.486 59.9115 124.424 60.2573 124.299C60.6031 124.175 60.969 123.934 61.3571 123.576L62.0197 124.237C61.4117 125.506 60.6101 126.45 59.6154 127.07C58.6201 127.691 57.4872 128.001 56.2152 128.001C54.8609 128.001 53.8172 127.732 53.0847 127.194C52.3522 126.656 51.8342 125.878 51.5305 124.857H51.4469C50.8112 125.96 49.9681 126.794 48.9181 127.36C47.8668 127.924 46.7753 128.208 45.6417 128.208ZM48.8759 124.485C49.4286 124.485 49.9197 124.354 50.3478 124.092C50.7759 123.829 51.1418 123.532 51.4462 123.202V117.825C50.1756 118.184 49.2142 118.652 48.5654 119.231C47.9152 119.81 47.4871 120.389 47.2796 120.969C47.0728 121.548 46.969 122.031 46.969 122.416C46.969 122.995 47.135 123.484 47.4656 123.884C47.7983 124.284 48.268 124.485 48.8759 124.485Z" fill="white"/>
<path d="M71.3489 123.037C71.3489 124.059 71.4173 124.823 71.5564 125.334C71.6947 125.844 71.943 126.18 72.3027 126.346C72.6617 126.511 73.1728 126.609 73.8368 126.635V127.587H63.264V126.635C63.7336 126.608 64.1064 126.511 64.3838 126.346C64.6591 126.18 64.8527 125.844 64.9641 125.334C65.0741 124.823 65.1301 124.059 65.1301 123.037V100.743C65.1301 100.329 65.0533 100.054 64.9018 99.9148C64.7497 99.7781 64.5221 99.7085 64.2178 99.7085C63.9965 99.7085 63.7544 99.736 63.4922 99.7906C63.2287 99.8458 62.9465 99.9293 62.6422 100.038L62.2279 99.0874L71.2666 94.9095L71.5149 95.1572C71.4872 95.5719 71.4526 96.2122 71.4111 97.0816C71.3696 97.9496 71.3489 99.0454 71.3489 100.369V123.037Z" fill="white"/>
<path d="M86.1505 128.208C84.2706 128.208 82.5642 127.807 81.0301 127.008C79.496 126.209 78.2787 125.065 77.3816 123.576C76.4824 122.086 76.0335 120.322 76.0335 118.28C76.0335 116.074 76.5315 114.2 77.5261 112.656C78.5215 111.112 79.8405 109.94 81.4859 109.14C83.13 108.34 84.8917 107.941 86.7723 107.941C89.3149 107.941 91.2433 108.623 92.5554 109.988C93.8682 111.353 94.5252 113.139 94.5252 115.344L82.2938 116.876C82.4598 119.219 83.1501 120.902 84.3667 121.921C85.5827 122.942 86.993 123.451 88.597 123.451C89.3979 123.451 90.3102 123.307 91.3332 123.017C92.3555 122.728 93.2816 122.196 94.1116 121.426L94.7742 122.087C94.0003 123.934 92.9434 125.416 91.6029 126.533C90.2618 127.649 88.4441 128.208 86.1505 128.208ZM85.5287 109.718C84.5888 109.718 83.8286 110.208 83.2483 111.187C82.6673 112.166 82.336 113.511 82.253 115.22L88.2657 114.475C88.2103 113.179 87.9821 112.062 87.5816 111.125C87.1797 110.187 86.4957 109.718 85.5287 109.718Z" fill="white"/>
<path d="M107.049 128.208C105.169 128.208 103.462 127.807 101.928 127.008C100.394 126.209 99.1767 125.065 98.2796 123.576C97.3804 122.086 96.9315 120.322 96.9315 118.28C96.9315 116.074 97.4296 114.2 98.4242 112.656C99.4195 111.112 100.738 109.94 102.384 109.14C104.028 108.34 105.79 107.941 107.67 107.941C110.213 107.941 112.141 108.623 113.453 109.988C114.766 111.353 115.423 113.139 115.423 115.344L103.192 116.876C103.358 119.219 104.048 120.902 105.265 121.921C106.481 122.942 107.891 123.451 109.494 123.451C110.295 123.451 111.208 123.307 112.231 123.017C113.253 122.728 114.179 122.196 115.009 121.426L115.672 122.087C114.898 123.934 113.841 125.416 112.5 126.533C111.16 127.649 109.341 128.208 107.049 128.208ZM106.427 109.718C105.487 109.718 104.727 110.208 104.146 111.187C103.565 112.166 103.234 113.511 103.151 115.22L109.164 114.475C109.108 113.179 108.88 112.062 108.48 111.125C108.077 110.187 107.393 109.718 106.427 109.718Z" fill="white"/>
<path d="M125.872 128C125.678 127.283 125.471 126.655 125.25 126.118C125.028 125.581 124.753 124.981 124.421 124.319L118.699 112.696C118.257 111.786 117.897 111.111 117.621 110.669C117.345 110.228 117.103 109.932 116.895 109.78C116.688 109.629 116.432 109.539 116.129 109.511V108.56H126.536V109.511C125.845 109.539 125.389 109.718 125.168 110.049C124.947 110.38 124.878 110.78 124.961 111.248C125.044 111.718 125.195 112.2 125.416 112.696L128.899 119.934H128.983L132.009 112.696C132.314 111.979 132.334 111.283 132.072 110.607C131.808 109.932 131.222 109.566 130.309 109.511V108.56H136.902V109.511C136.267 109.566 135.726 109.932 135.286 110.607C134.842 111.283 134.47 111.978 134.166 112.696L129.232 124.319C128.927 125.064 128.707 125.683 128.569 126.18C128.43 126.677 128.279 127.284 128.113 128.001L125.872 128Z" fill="white"/>
<path d="M148.8 107.939C150.817 107.939 152.593 108.347 154.128 109.159C155.662 109.973 156.871 111.124 157.756 112.614C158.641 114.103 159.083 115.84 159.083 117.825C159.083 120.004 158.571 121.864 157.549 123.409C156.526 124.953 155.192 126.138 153.547 126.966C151.903 127.794 150.127 128.208 148.22 128.208C146.23 128.208 144.46 127.794 142.912 126.966C141.364 126.138 140.148 124.987 139.264 123.512C138.379 122.037 137.937 120.307 137.937 118.322C137.937 116.144 138.447 114.282 139.471 112.737C140.493 111.193 141.828 110.007 143.472 109.181C145.117 108.353 146.893 107.939 148.8 107.939ZM148.925 126.429C149.947 126.429 150.791 125.85 151.454 124.692C152.118 123.533 152.449 121.741 152.449 119.315C152.449 117.55 152.269 115.944 151.909 114.496C151.55 113.049 151.045 111.89 150.397 111.022C149.747 110.154 148.979 109.719 148.095 109.719C147.073 109.719 146.23 110.299 145.566 111.456C144.902 112.614 144.571 114.408 144.571 116.833C144.571 118.599 144.751 120.205 145.11 121.652C145.469 123.1 145.98 124.258 146.644 125.127C147.308 125.995 148.067 126.429 148.925 126.429Z" fill="white"/>
</g>

</svg>
