<?xml version="1.0" encoding="UTF-8"?>
<svg id="logo" xmlns="http://www.w3.org/2000/svg" viewBox="0 0 1000 1000" >
  <defs>

  </defs>
  <g>
    <path fill="#f7971c" stroke-width="0" d="m745.26,669.64c2.65,17.58-9.74,31.97-27.52,31.97h-435.48c-17.78,0-30.17-14.39-27.52-31.97l70.34-338.61c2.65-17.59,19.36-31.97,37.15-31.97h275.56c17.78,0,34.5,14.39,37.15,31.97l70.34,338.61Z"/>
    <path fill="#f7971c" stroke-width="0" d="m595.31,315.14c-7.14,0-12.93-5.79-12.93-12.93,0-54.62-42.7-79.5-82.37-79.5s-82.37,24.88-82.37,79.5c0,7.14-5.79,12.93-12.93,12.93s-12.93-5.79-12.93-12.93c0-69.18,54.45-105.37,108.24-105.37s108.24,36.19,108.24,105.37c0,7.14-5.79,12.93-12.93,12.93Z"/>
    <g>
      <path class="cls-1" fill="#fff" stroke-width="0" d="m500,497.54c-53.79,0-108.24-36.19-108.24-105.37,0-7.14,5.79-12.93,12.93-12.93s12.93,5.79,12.93,12.93c0,54.62,42.7,79.5,82.37,79.5s82.37-24.88,82.37-79.5c0-7.14,5.79-12.93,12.93-12.93s12.93,5.79,12.93,12.93c0,69.18-54.45,105.37-108.24,105.37Z"/>
      <g>
        <path class="cls-1" fill="#fff" stroke-width="0" d="m428.06,392.18c0,12.9-10.46,23.36-23.36,23.36s-23.36-10.46-23.36-23.36,10.46-23.37,23.36-23.37,23.36,10.47,23.36,23.37Z"/>
        <path class="cls-1" fill="#fff" stroke-width="0" d="m618.67,392.18c0,12.9-10.46,23.36-23.36,23.36s-23.36-10.46-23.36-23.36,10.46-23.37,23.36-23.37,23.36,10.47,23.36,23.37Z"/>
      </g>
    </g>
  </g>
  <g>
    <path class="cls-2" stroke-width="0" fill="#fff" d="m415.95,616.26h-24.5l-6.19,17.63h-8.07l22.71-61.59h7.6l22.71,61.59h-8.07l-6.19-17.63Zm-22.24-6.53h19.98l-9.86-28.09h-.26l-9.86,28.09Z"/>
    <path class="cls-2" stroke-width="0" fill="#fff" d="m436.49,572.29h7.43v61.59h-7.43v-61.59Z"/>
    <path class="cls-2" stroke-width="0" fill="#fff" d="m446.36,576.32c6.01,0,11.01,4.89,11.01,11.01h1.1c0-6.12,4.99-11.01,11.01-11.01v-.81c-6.01,0-11.01-5-11.01-11.01h-1.1c0,6.01-4.99,11.01-11.01,11.01v.81Z"/>
    <rect class="cls-2" stroke-width="0" fill="#fff" x="454.34" y="589.5" width="7.43" height="44.39"/>
    <path class="cls-2" stroke-width="0" fill="#fff" d="m501.43,604.05c-1.07-4.82-4.82-8.79-11.35-8.79-7.68,0-12.89,6.36-12.89,16.43s5.29,16.43,12.98,16.43c6.06,0,10.03-3.2,11.31-8.54h7.3c-1.15,8.84-8.58,15.07-18.65,15.07-12.29,0-20.49-8.66-20.49-22.96s8.15-22.96,20.4-22.96c11.1,0,17.71,7.34,18.65,15.32h-7.26Z"/>
    <path class="cls-2" stroke-width="0" fill="#fff" d="m513.44,611.69c0-14.17,8.28-22.96,20.57-22.96s20.53,8.79,20.53,22.96-8.28,22.96-20.53,22.96-20.57-8.84-20.57-22.96Zm33.55,0c0-10.46-5.12-16.43-12.98-16.43s-13.02,5.98-13.02,16.43,5.16,16.43,13.02,16.43,12.98-5.98,12.98-16.43Z"/>
    <path class="cls-2" stroke-width="0" fill="#fff" d="m562.03,589.5h7v7.09h.17c2.09-4.7,6.62-7.85,12.59-7.85s10.54,3.07,12.46,8.45h.17c2.48-5.29,7.68-8.45,13.91-8.45,8.79,0,14.47,5.72,14.47,14.51v30.65h-7.43v-28.94c0-6.06-3.37-9.65-9.22-9.65s-10.03,4.35-10.03,10.37v28.22h-7.43v-29.75c0-5.34-3.59-8.84-9.09-8.84-5.89,0-10.16,4.61-10.16,10.76v27.83h-7.43v-44.39Z"/>
  </g>
</svg>