<svg width="24" height="24" viewBox="0 0 24 24" fill="none" xmlns="http://www.w3.org/2000/svg">
<path d="M5.22301 2.25C4.72601 2.25 4.24901 2.448 3.89801 2.8L2.59801 4.098C1.92624 4.76853 1.53372 5.66884 1.49962 6.61738C1.46551 7.56592 1.79237 8.4921 2.41425 9.20913C3.03614 9.92617 3.90679 10.3807 4.85062 10.4811C5.79445 10.5815 6.74122 10.3202 7.50001 9.75C8.12701 10.22 8.90601 10.5 9.75001 10.5C10.594 10.5 11.374 10.22 12 9.75C12.626 10.22 13.406 10.5 14.25 10.5C15.094 10.5 15.873 10.22 16.5 9.75C17.2588 10.3202 18.2056 10.5815 19.1494 10.4811C20.0932 10.3807 20.9639 9.92617 21.5858 9.20913C22.2076 8.4921 22.5345 7.56592 22.5004 6.61738C22.4663 5.66884 22.0738 4.76853 21.402 4.098L20.102 2.799C19.7505 2.44764 19.274 2.25017 18.777 2.25H5.22301Z" fill="#DBDBDB"/>
<path fill-rule="evenodd" clip-rule="evenodd" d="M3 20.25V11.495C4.42 12.169 6.08 12.168 7.5 11.495C8.20313 11.8285 8.97178 12.001 9.75 12C10.554 12 11.318 11.818 12 11.494C12.7031 11.8279 13.4717 12.0007 14.25 12C15.054 12 15.817 11.818 16.5 11.494C17.92 12.168 19.58 12.169 21 11.495V20.25H21.75C21.9489 20.25 22.1397 20.329 22.2803 20.4697C22.421 20.6103 22.5 20.8011 22.5 21C22.5 21.1989 22.421 21.3897 22.2803 21.5303C22.1397 21.671 21.9489 21.75 21.75 21.75H2.25C2.05109 21.75 1.86032 21.671 1.71967 21.5303C1.57902 21.3897 1.5 21.1989 1.5 21C1.5 20.8011 1.57902 20.6103 1.71967 20.4697C1.86032 20.329 2.05109 20.25 2.25 20.25H3ZM6 14.25C6 14.0511 6.07902 13.8603 6.21967 13.7197C6.36032 13.579 6.55109 13.5 6.75 13.5H9.75C9.94891 13.5 10.1397 13.579 10.2803 13.7197C10.421 13.8603 10.5 14.0511 10.5 14.25V17.25C10.5 17.4489 10.421 17.6397 10.2803 17.7803C10.1397 17.921 9.94891 18 9.75 18H6.75C6.55109 18 6.36032 17.921 6.21967 17.7803C6.07902 17.6397 6 17.4489 6 17.25V14.25ZM14.25 13.5C14.0511 13.5 13.8603 13.579 13.7197 13.7197C13.579 13.8603 13.5 14.0511 13.5 14.25V19.5C13.5 19.914 13.836 20.25 14.25 20.25H17.25C17.4489 20.25 17.6397 20.171 17.7803 20.0303C17.921 19.8897 18 19.6989 18 19.5V14.25C18 14.0511 17.921 13.8603 17.7803 13.7197C17.6397 13.579 17.4489 13.5 17.25 13.5H14.25Z" fill="#DBDBDB"/>
</svg>
