<svg width="24" height="24" viewBox="0 0 24 24" fill="none" xmlns="http://www.w3.org/2000/svg">
<path d="M21.53 10.8699L20.01 9.34988C19.75 9.08988 19.54 8.57988 19.54 8.21988V6.05988C19.54 5.17988 18.82 4.45988 17.94 4.45988H15.79C15.43 4.45988 14.92 4.24988 14.66 3.98988L13.14 2.46988C12.52 1.84988 11.5 1.84988 10.88 2.46988L9.34 3.98988C9.09 4.24988 8.58 4.45988 8.21 4.45988H6.06C5.18 4.45988 4.46 5.17988 4.46 6.05988V8.20988C4.46 8.56988 4.25 9.07988 3.99 9.33988L2.47 10.8599C1.85 11.4799 1.85 12.4999 2.47 13.1199L3.99 14.6399C4.25 14.8999 4.46 15.4099 4.46 15.7699V17.9199C4.46 18.7999 5.18 19.5199 6.06 19.5199H8.21C8.57 19.5199 9.08 19.7299 9.34 19.9899L10.86 21.5099C11.48 22.1299 12.5 22.1299 13.12 21.5099L14.64 19.9899C14.9 19.7299 15.41 19.5199 15.77 19.5199H17.92C18.8 19.5199 19.52 18.7999 19.52 17.9199V15.7699C19.52 15.4099 19.73 14.8999 19.99 14.6399L21.51 13.1199C22.16 12.5099 22.16 11.4899 21.53 10.8699ZM8 8.99988C8 8.44988 8.45 7.99988 9 7.99988C9.55 7.99988 10 8.44988 10 8.99988C10 9.54988 9.56 9.99988 9 9.99988C8.45 9.99988 8 9.54988 8 8.99988ZM9.53 15.5299C9.38 15.6799 9.19 15.7499 9 15.7499C8.81 15.7499 8.62001 15.6799 8.47001 15.5299C8.18001 15.2399 8.18001 14.7599 8.47001 14.4699L14.47 8.46988C14.76 8.17988 15.24 8.17988 15.53 8.46988C15.82 8.75988 15.82 9.23988 15.53 9.52988L9.53 15.5299ZM15 15.9999C14.44 15.9999 13.99 15.5499 13.99 14.9999C13.99 14.4499 14.44 13.9999 14.99 13.9999C15.54 13.9999 15.99 14.4499 15.99 14.9999C15.99 15.5499 15.55 15.9999 15 15.9999Z" fill="#617986"/>
</svg>
