<svg width="19" height="19" viewBox="0 0 19 19" fill="none" xmlns="http://www.w3.org/2000/svg">
<path fill-rule="evenodd" clip-rule="evenodd" d="M10.5154 0.336345C9.84325 -0.112115 8.96732 -0.112115 8.29522 0.336345L5.99444 1.87153C5.83935 1.97501 5.67055 2.0563 5.49295 2.11303L2.85818 2.95468C2.08851 3.20055 1.54238 3.88537 1.47395 4.69046L1.23969 7.44645C1.2239 7.63222 1.18222 7.81488 1.11584 7.9891L0.131113 10.5738C-0.156546 11.3289 0.0383664 12.1828 0.62514 12.7383L2.63381 14.6398C2.76921 14.7679 2.88602 14.9144 2.98085 15.0749L4.38769 17.4564C4.79865 18.152 5.58783 18.5321 6.38796 18.4196L9.12698 18.0348C9.31161 18.0088 9.49896 18.0088 9.68359 18.0348L12.4226 18.4196C13.2227 18.5321 14.0119 18.152 14.4229 17.4564L15.8297 15.0749C15.9246 14.9144 16.0414 14.7679 16.1768 14.6398L18.1854 12.7383C18.7722 12.1828 18.9671 11.3289 18.6795 10.5738L17.6947 7.9891C17.6284 7.81488 17.5867 7.63222 17.5709 7.44645L17.3366 4.69046C17.2682 3.88537 16.7221 3.20055 15.9524 2.95468L13.3176 2.11303C13.14 2.0563 12.9712 1.97501 12.8161 1.87153L10.5154 0.336345ZM5.3712 9.29731C5.66665 9.45201 5.9962 9.52936 6.35983 9.52936C6.72347 9.52936 7.05301 9.45201 7.34847 9.29731C7.64392 9.13525 7.87877 8.90689 8.05301 8.61223C8.22726 8.31757 8.31438 7.96766 8.31438 7.56251C8.31438 7.15735 8.22726 6.80744 8.05301 6.51278C7.87877 6.21812 7.64392 5.99345 7.34847 5.83875C7.06059 5.67669 6.73483 5.59566 6.3712 5.59566C5.99998 5.59566 5.66665 5.67669 5.3712 5.83875C5.07574 5.99345 4.84089 6.21812 4.66665 6.51278C4.49241 6.80744 4.40529 7.15735 4.40529 7.56251C4.40529 7.96766 4.49241 8.31757 4.66665 8.61223C4.84089 8.90689 5.07574 9.13525 5.3712 9.29731ZM10.4166 5.72825L5.92801 13.4631H7.34847L11.8371 5.72825H10.4166ZM6.92801 8.30284C6.76892 8.4649 6.57953 8.54593 6.35983 8.54593C6.13256 8.54593 5.93938 8.4649 5.78029 8.30284C5.62877 8.13341 5.55301 7.88663 5.55301 7.56251C5.55301 7.23838 5.62877 6.9916 5.78029 6.82217C5.93938 6.65275 6.13256 6.56803 6.35983 6.56803C6.58711 6.56803 6.7765 6.65275 6.92801 6.82217C7.08711 6.9916 7.16665 7.23838 7.16665 7.56251C7.16665 7.88663 7.08711 8.13341 6.92801 8.30284ZM10.4621 13.3636C10.7576 13.5183 11.0871 13.5957 11.4507 13.5957C11.822 13.5957 12.1515 13.5183 12.4394 13.3636C12.7348 13.2015 12.9697 12.9732 13.1439 12.6785C13.3182 12.3839 13.4053 12.034 13.4053 11.6288C13.4053 11.2236 13.3182 10.8774 13.1439 10.5901C12.9697 10.2955 12.7348 10.0708 12.4394 9.9161C12.1515 9.75403 11.8257 9.673 11.4621 9.673C11.0909 9.673 10.7576 9.75403 10.4621 9.9161C10.1667 10.0708 9.9318 10.2955 9.75756 10.5901C9.58332 10.8774 9.4962 11.2236 9.4962 11.6288C9.4962 12.034 9.58332 12.3839 9.75756 12.6785C9.9318 12.9732 10.1667 13.2015 10.4621 13.3636ZM12.0189 12.3691C11.8674 12.5312 11.678 12.6122 11.4507 12.6122C11.2235 12.6122 11.0303 12.5312 10.8712 12.3691C10.7197 12.1997 10.6439 11.9529 10.6439 11.6288C10.6439 11.3047 10.7197 11.0579 10.8712 10.8885C11.0303 10.719 11.2235 10.6343 11.4507 10.6343C11.678 10.6343 11.8674 10.719 12.0189 10.8885C12.178 11.0579 12.2576 11.3047 12.2576 11.6288C12.2576 11.9529 12.178 12.1997 12.0189 12.3691Z" fill="#EA1C24"/>
</svg>
