<?xml version="1.0" encoding="UTF-8"?>
<!DOCTYPE svg PUBLIC "-//W3C//DTD SVG 1.1//EN" "http://www.w3.org/Graphics/SVG/1.1/DTD/svg11.dtd">
<svg xmlns="http://www.w3.org/2000/svg" version="1.1" width="512px" height="512px" style="shape-rendering:geometricPrecision; text-rendering:geometricPrecision; image-rendering:optimizeQuality; fill-rule:evenodd; clip-rule:evenodd" xmlns:xlink="http://www.w3.org/1999/xlink">
<g><path style="opacity:0.99" fill="#000000" d="M 44.5,-0.5 C 115.833,-0.5 187.167,-0.5 258.5,-0.5C 282.674,6.17702 297.507,21.8437 303,46.5C 318.833,57.6667 334.667,68.8333 350.5,80C 361.552,88.6737 362.219,98.0071 352.5,108C 336.333,119.5 320.167,131 304,142.5C 303.5,154.495 303.333,166.495 303.5,178.5C 289.496,178.333 275.496,178.5 261.5,179C 240.123,179.954 221.457,187.454 205.5,201.5C 204.66,198.633 202.993,196.467 200.5,195C 187.261,194.275 174.927,190.608 163.5,184C 175.79,170.918 182.79,155.418 184.5,137.5C 190.762,138.128 196.762,137.295 202.5,135C 205.448,130.659 205.115,126.659 201.5,123C 187.598,121.535 173.598,121.035 159.5,121.5C 159.87,113.097 159.37,104.764 158,96.5C 152.837,90.9377 148.171,91.271 144,97.5C 143.5,105.493 143.334,113.493 143.5,121.5C 129.069,121.034 114.736,121.534 100.5,123C 96.8849,126.659 96.5515,130.659 99.5,135C 105.238,137.295 111.238,138.128 117.5,137.5C 119.221,155.439 126.221,170.939 138.5,184C 128.147,190.561 116.813,193.894 104.5,194C 98.3469,195.465 96.1802,199.298 98,205.5C 99.1667,206.667 100.333,207.833 101.5,209C 119.557,210.058 136.057,205.558 151,195.5C 165.204,204.401 180.704,209.401 197.5,210.5C 186.024,225.134 179.857,241.801 179,260.5C 178.5,274.829 178.333,289.163 178.5,303.5C 136.499,303.667 94.4987,303.5 52.5,303C 24.5847,300.243 6.91806,285.41 -0.5,258.5C -0.5,187.167 -0.5,115.833 -0.5,44.5C 5.5,20.5 20.5,5.5 44.5,-0.5 Z"/></g>
<g><path style="opacity:0.93" fill="#000000" d="M 133.5,137.5 C 145.167,137.5 156.833,137.5 168.5,137.5C 166.969,151.894 161.136,164.227 151,174.5C 140.874,164.246 135.041,151.913 133.5,137.5 Z"/></g>
<g><path style="opacity:0.991" fill="#000000" d="M 511.5,252.5 C 511.5,323.833 511.5,395.167 511.5,466.5C 505.5,490.5 490.5,505.5 466.5,511.5C 395.167,511.5 323.833,511.5 252.5,511.5C 228.326,504.823 213.493,489.156 208,464.5C 192.167,453.333 176.333,442.167 160.5,431C 149.448,422.326 148.781,412.993 158.5,403C 174.667,391.5 190.833,380 207,368.5C 207.333,332.5 207.667,296.5 208,260.5C 212.167,229.667 229.667,212.167 260.5,208C 326.5,207.333 392.5,207.333 458.5,208C 486.415,210.757 504.082,225.59 511.5,252.5 Z M 354.5,301.5 C 359.267,301.191 363.934,301.691 368.5,303C 370.378,304.543 371.878,306.376 373,308.5C 383.401,342.536 393.901,376.536 404.5,410.5C 400.223,417.473 394.223,419.639 386.5,417C 383.261,409.448 380.928,401.615 379.5,393.5C 366.5,393.5 353.5,393.5 340.5,393.5C 338.861,401.56 336.528,409.393 333.5,417C 325.639,419.881 319.639,417.714 315.5,410.5C 326.099,376.536 336.599,342.536 347,308.5C 348.632,305.123 351.132,302.79 354.5,301.5 Z"/></g>
<g><path style="opacity:0.909" fill="#000000" d="M 359.5,327.5 C 364.941,343.57 369.941,359.904 374.5,376.5C 364.856,377.498 355.19,377.832 345.5,377.5C 349.859,360.729 354.526,344.062 359.5,327.5 Z"/></g>
</svg>
